<svg width="50" height="50" fill="none" xmlns="http://www.w3.org/2000/svg"><path fill-rule="evenodd" clip-rule="evenodd" d="M31.538 19.662a1.2 1.2 0 11-2.4 0 1.2 1.2 0 012.4 0zM25 28.333a3.333 3.333 0 110-6.667 3.333 3.333 0 010 6.667zm0-8.468a5.135 5.135 0 100 10.27 5.135 5.135 0 000-10.27zm0-3.063c2.67 0 2.986.01 4.04.058.976.045 1.505.207 1.858.345.466.18.8.398 1.15.748.35.35.566.683.748 1.15.136.352.3.881.344 1.856.048 1.055.058 1.371.058 4.041 0 2.67-.01 2.987-.058 4.041-.044.975-.207 1.505-.344 1.857-.182.467-.398.8-.748 1.15-.35.35-.684.566-1.15.748-.353.137-.882.3-1.857.344-1.055.048-1.37.059-4.041.059-2.67 0-2.987-.01-4.04-.059-.976-.044-1.506-.207-1.858-.344a3.099 3.099 0 01-1.15-.748 3.099 3.099 0 01-.748-1.15c-.137-.352-.3-.882-.344-1.857-.048-1.054-.058-1.37-.058-4.04s.01-2.987.058-4.042c.044-.975.207-1.504.344-1.857.182-.466.398-.8.748-1.15.35-.35.683-.566 1.15-.748.352-.136.882-.3 1.857-.344 1.055-.048 1.37-.058 4.041-.058zM25 15c-2.716 0-3.056.012-4.123.06-1.064.049-1.791.218-2.427.465a4.9 4.9 0 00-1.772 1.153 4.9 4.9 0 00-1.153 1.772c-.247.636-.416 1.363-.465 2.427C15.012 21.944 15 22.284 15 25s.012 3.056.06 4.123c.049 1.064.218 1.791.465 2.427a4.9 4.9 0 001.153 1.772c.5.509 1.104.902 1.772 1.153.636.247 1.363.416 2.427.465 1.067.048 1.407.06 4.123.06s3.056-.012 4.123-.06c1.064-.049 1.791-.218 2.427-.465a4.903 4.903 0 001.772-1.153c.509-.5.902-1.105 1.153-1.772.247-.636.416-1.363.465-2.427.048-1.067.06-1.407.06-4.123s-.012-3.056-.06-4.123c-.049-1.064-.218-1.791-.465-2.427a4.903 4.903 0 00-1.153-1.772 4.903 4.903 0 00-1.772-1.153c-.636-.247-1.363-.416-2.427-.465C28.056 15.012 27.716 15 25 15z" fill="#4E4E4E"/><rect x=".5" y=".5" width="49" height="49" rx="24.5" stroke="#4E4E4E"/></svg>