<svg width="50" height="50" fill="none" xmlns="http://www.w3.org/2000/svg"><mask id="mask0_42_48" style="mask-type:alpha" maskUnits="userSpaceOnUse" x="14" y="15" width="20" height="20"><path d="M14 15h20v20H14V15z" fill="#fff"/></mask><g mask="url(#mask0_42_48)"><path fill-rule="evenodd" clip-rule="evenodd" d="M15.369 23.893c5.365-2.33 8.937-3.879 10.73-4.63 5.105-2.13 6.178-2.499 6.868-2.514.154 0 .49.03.72.215.185.153.23.352.261.506.031.153.062.475.031.72-.276 2.913-1.472 9.98-2.085 13.23-.26 1.38-.766 1.839-1.257 1.885-1.073.092-1.885-.705-2.913-1.38-1.625-1.057-2.529-1.717-4.108-2.759-1.824-1.196-.644-1.855.399-2.928.276-.276 4.982-4.568 5.074-4.951.015-.046.015-.23-.092-.322s-.26-.062-.383-.031c-.169.03-2.744 1.748-7.757 5.135-.736.506-1.395.752-1.993.736-.66-.015-1.916-.368-2.867-.674-1.15-.368-2.07-.567-1.992-1.211.045-.338.505-.675 1.364-1.027z" fill="#4E4E4E"/></g><rect x=".5" y=".5" width="49" height="49" rx="24.5" stroke="#4E4E4E"/></svg>