<svg width="50" height="50" fill="none" xmlns="http://www.w3.org/2000/svg"><path fill-rule="evenodd" clip-rule="evenodd" d="M32.086 17.907A9.919 9.919 0 0025.042 15c-5.489 0-9.956 4.446-9.959 9.91 0 1.747.458 3.451 1.33 4.954L15 35l5.279-1.378a9.985 9.985 0 004.759 1.206h.004c5.488 0 9.956-4.446 9.958-9.91a9.827 9.827 0 00-2.914-7.011zm-7.044 15.247h-.004a8.295 8.295 0 01-4.212-1.148l-.302-.178-3.133.817.836-3.04-.197-.31a8.188 8.188 0 01-1.265-4.385c.002-4.541 3.715-8.236 8.28-8.236a8.24 8.24 0 015.852 2.416 8.168 8.168 0 012.422 5.827c-.002 4.542-3.715 8.237-8.277 8.237z" fill="#4E4E4E"/><path fill-rule="evenodd" clip-rule="evenodd" d="M29.582 26.985c-.248-.124-1.472-.723-1.7-.806-.228-.082-.394-.124-.56.124-.165.248-.642.806-.787.971-.146.165-.29.186-.54.062-.248-.124-1.05-.385-2-1.229-.74-.657-1.24-1.467-1.385-1.715-.145-.248-.015-.382.11-.506.111-.11.248-.289.373-.434.124-.144.166-.248.248-.413.083-.165.042-.31-.02-.434-.063-.123-.56-1.342-.767-1.838-.202-.483-.408-.418-.56-.425a9.981 9.981 0 00-.477-.009.916.916 0 00-.664.31c-.228.248-.87.847-.87 2.066 0 1.22.891 2.396 1.015 2.561.125.166 1.755 2.667 4.251 3.74.463.199.937.373 1.419.521.596.19 1.138.162 1.567.098.478-.07 1.472-.599 1.68-1.177.207-.579.207-1.075.144-1.178-.062-.103-.228-.165-.477-.29v.001z" fill="#4E4E4E"/><rect x=".5" y=".5" width="49" height="49" rx="24.5" stroke="#4E4E4E"/></svg>